<svg width="24" height="16" viewBox="0 0 24 16" fill="none" xmlns="http://www.w3.org/2000/svg">
<rect width="24" height="15.6145" fill="white"/>
<path d="M22.4845 7.89068C22.4845 11.4501 17.7748 14.3356 11.9651 14.3356C6.15548 14.3356 1.4458 11.4501 1.4458 7.89068C1.4458 4.33126 6.15548 1.44577 11.9651 1.44577C17.7748 1.44577 22.4845 4.33126 22.4845 7.89068Z" fill="white"/>
<path d="M21.0082 7.98102C21.0082 9.39941 20.0628 10.7597 18.38 11.7626C16.6973 12.7656 14.415 13.329 12.0352 13.329C9.65541 13.329 7.37312 12.7656 5.69036 11.7626C4.00763 10.7597 3.06226 9.39941 3.06226 7.98102H3.83316C3.83316 9.27757 4.69729 10.521 6.23548 11.4377C7.77367 12.3545 9.8599 12.8696 12.0352 12.8696C14.2105 12.8696 16.2967 12.3545 17.8349 11.4377C19.3731 10.521 20.2373 9.27757 20.2373 7.98102H21.0082Z" fill="#284356"/>
<path d="M3.06226 7.98102C3.06226 6.56266 4.00763 5.20238 5.69036 4.19942C7.37312 3.19647 9.65542 2.63303 12.0352 2.63303C14.415 2.63303 16.6973 3.19647 18.38 4.19942C20.0628 5.20238 21.0082 6.56266 21.0082 7.98102H20.2373C20.2373 6.6845 19.3731 5.44108 17.8349 4.52431C16.2967 3.60754 14.2105 3.0925 12.0352 3.0925C9.8599 3.0925 7.77367 3.60754 6.23548 4.52432C4.69729 5.44111 3.83316 6.6845 3.83316 7.98102H3.06226Z" fill="#284356"/>
<path d="M18.4327 7.96948C18.4327 8.98072 17.7587 9.95055 16.5589 10.6656C15.3592 11.3807 13.732 11.7824 12.0353 11.7824C10.3386 11.7824 8.7114 11.3807 7.51168 10.6656C6.31192 9.95055 5.63794 8.98072 5.63794 7.96948H6.18757C6.18757 8.89385 6.80367 9.78037 7.9003 10.434C8.99697 11.0876 10.4844 11.4548 12.0353 11.4548C13.5862 11.4548 15.0736 11.0876 16.1703 10.434C17.2669 9.78037 17.8831 8.89385 17.8831 7.96948H18.4327Z" fill="#284356"/>
<path d="M5.6377 7.96952C5.6377 6.95827 6.31171 5.98842 7.51143 5.27337C8.71119 4.5583 10.3384 4.15659 12.035 4.15659C13.7318 4.15659 15.3589 4.5583 16.5587 5.27337C17.7584 5.98842 18.4324 6.95827 18.4324 7.96952H17.8828C17.8828 7.04515 17.2667 6.15863 16.17 5.50501C15.0734 4.85136 13.586 4.48417 12.035 4.48417C10.4841 4.48417 8.99673 4.85136 7.90009 5.50501C6.80342 6.15863 6.18732 7.04515 6.18732 7.96952H5.6377Z" fill="#284356"/>
<mask id="mask0_949_22278" style="mask-type:luminance" maskUnits="userSpaceOnUse" x="9" y="5" width="6" height="6">
<path d="M12.0263 10.634C13.3313 10.634 14.3892 9.44619 14.3892 7.98101C14.3892 6.51583 13.3313 5.32806 12.0263 5.32806C10.7213 5.32806 9.66333 6.51583 9.66333 7.98101C9.66333 9.44619 10.7213 10.634 12.0263 10.634Z" fill="white"/>
</mask>
<g mask="url(#mask0_949_22278)">
<path d="M10.6983 7.981C10.6983 7.97741 10.6972 7.86984 10.8411 7.70835C10.9911 7.5399 11.391 7.24191 12.0264 7.24191V14.026C16.0265 14.026 18.0803 10.653 18.0803 7.981H10.6983ZM12.0264 7.24191C12.6617 7.24191 13.0616 7.5399 13.2116 7.70835C13.3555 7.86984 13.3544 7.97741 13.3544 7.981H5.97241C5.97241 10.653 8.02623 14.026 12.0264 14.026V7.24191ZM13.3544 7.981C13.3544 7.98463 13.3555 8.09216 13.2116 8.25366C13.0616 8.42214 12.6617 8.72013 12.0264 8.72013V1.936C8.02623 1.936 5.97241 5.30908 5.97241 7.981H13.3544ZM12.0264 8.72013C11.391 8.72013 10.9911 8.42214 10.8411 8.25366C10.6972 8.09216 10.6983 7.98463 10.6983 7.981H18.0803C18.0803 5.30908 16.0265 1.936 12.0264 1.936V8.72013Z" fill="#6090A8"/>
</g>
<path d="M12.0265 8.99163C12.5444 8.99163 12.9642 8.52972 12.9642 7.95992C12.9642 7.39013 12.5444 6.92822 12.0265 6.92822C11.5087 6.92822 11.0889 7.39013 11.0889 7.95992C11.0889 8.52972 11.5087 8.99163 12.0265 8.99163Z" fill="#1C2735"/>
</svg>
