<svg width="69" height="38" fill="none" xmlns="http://www.w3.org/2000/svg"><g clip-path="url(#a)"><path d="M69 19c0 10.493-12.947 19-28.92 19-15.97 0-28.918-8.507-28.918-19S24.109 0 40.08 0C56.052 0 69 8.507 69 19z" fill="#fff"/><path d="M64.941 19.266c0 4.182-2.599 8.192-7.225 11.149-4.626 2.956-10.9 4.617-17.443 4.617-6.542 0-12.816-1.66-17.442-4.617-4.626-2.957-7.225-6.967-7.225-11.149h2.119c0 3.822 2.376 7.488 6.604 10.19 4.229 2.704 9.964 4.222 15.944 4.222s11.716-1.518 15.945-4.221c4.228-2.703 6.604-6.369 6.604-10.19h2.12zM15.605 19.266c0-4.181 2.6-8.191 7.226-11.148C27.457 5.16 33.73 3.5 40.273 3.5c6.543 0 12.817 1.661 17.443 4.618 4.626 2.957 7.225 6.967 7.225 11.148h-2.12c0-3.822-2.375-7.488-6.603-10.19-4.23-2.703-9.965-4.221-15.945-4.221S28.558 6.373 24.33 9.075c-4.229 2.703-6.604 6.369-6.604 10.191h-2.12z" fill="#284356"/><path d="M57.86 19.232c0 2.982-1.852 5.84-5.15 7.949-3.299 2.108-7.772 3.292-12.437 3.292-4.664 0-9.137-1.184-12.436-3.292-3.298-2.108-5.15-4.967-5.15-7.949h1.51c0 2.726 1.694 5.339 4.709 7.266 3.015 1.927 7.104 3.01 11.367 3.01 4.264 0 8.353-1.083 11.368-3.01 3.015-1.927 4.709-4.54 4.709-7.266h1.51zM22.686 19.232c0-2.981 1.853-5.84 5.151-7.948C31.136 9.176 35.61 7.99 40.273 7.99c4.665 0 9.138 1.185 12.436 3.293 3.299 2.108 5.152 4.967 5.152 7.948H56.35c0-2.725-1.694-5.338-4.71-7.265-3.014-1.927-7.103-3.01-11.367-3.01-4.263 0-8.353 1.083-11.367 3.01-3.015 1.927-4.709 4.54-4.709 7.265h-1.51z" fill="#284356"/><path d="M40.25 22.246c1.423 0 2.577-1.362 2.577-3.042 0-1.68-1.154-3.041-2.578-3.041-1.423 0-2.578 1.361-2.578 3.041s1.155 3.042 2.578 3.042z" fill="#1C2735"/><mask id="b" style="mask-type:luminance" maskUnits="userSpaceOnUse" x="33" y="11" width="14" height="17"><path d="M40.25 27.087c3.587 0 6.495-3.501 6.495-7.82 0-4.32-2.908-7.822-6.496-7.822-3.587 0-6.496 3.502-6.496 7.821 0 4.32 2.909 7.821 6.496 7.821z" fill="#fff"/></mask><g mask="url(#b)"><path d="M36.598 19.266c0-.01-.003-.328.393-.804.412-.496 1.512-1.375 3.258-1.375v20c10.997 0 16.643-9.944 16.643-17.82H36.599zm3.651-2.179c1.747 0 2.846.879 3.259 1.375.395.476.392.794.392.804H23.606c0 7.877 5.646 17.821 16.643 17.821v-20zm3.651 2.18c0 .01.003.327-.392.803-.413.497-1.512 1.375-3.259 1.375v-20c-10.997 0-16.643 9.944-16.643 17.821H43.9zm-3.65 2.178c-1.747 0-2.847-.878-3.26-1.375-.395-.476-.392-.793-.392-.804h20.294c0-7.877-5.646-17.82-16.643-17.82v20z" fill="#6090A8"/></g></g><defs><clipPath id="a"><path fill="#fff" d="M0 0H69V38H0z"/></clipPath></defs></svg>