<svg width="69" height="38" viewBox="0 0 69 38" fill="none" xmlns="http://www.w3.org/2000/svg">
<g clip-path="url(#clip0_646_521)">
<path d="M69 19C69 29.4934 56.0525 38 40.0809 38C24.1093 38 11.1618 29.4934 11.1618 19C11.1618 8.50659 24.1093 0 40.0809 0C56.0525 0 69 8.50659 69 19Z" fill="white"/>
<path d="M64.9414 19.2662C64.9414 23.4477 62.3424 27.4579 57.7163 30.4146C53.0902 33.3714 46.8158 35.0325 40.2735 35.0325C33.7312 35.0325 27.4568 33.3714 22.8307 30.4146C18.2046 27.4579 15.6057 23.4477 15.6057 19.2662H17.725C17.725 23.0885 20.1006 26.7541 24.3293 29.4568C28.558 32.1596 34.2933 33.6779 40.2735 33.6779C46.2538 33.6779 51.9891 32.1596 56.2178 29.4568C60.4463 26.7541 62.8221 23.0885 62.8221 19.2662H64.9414Z" fill="#284356"/>
<path d="M15.6055 19.2662C15.6055 15.0848 18.2044 11.0746 22.8305 8.11783C27.4566 5.16108 33.731 3.5 40.2733 3.5C46.8156 3.5 53.09 5.16108 57.7161 8.11783C62.3422 11.0746 64.9412 15.0848 64.9412 19.2662H62.8219C62.8219 15.444 60.4462 11.7783 56.2176 9.07563C51.9889 6.37292 46.2535 4.85455 40.2733 4.85455C34.2931 4.85455 28.5578 6.37292 24.3291 9.07564C20.1004 11.7784 17.7248 15.444 17.7248 19.2662H15.6055Z" fill="#284356"/>
<path d="M57.8608 19.2323C57.8608 22.2135 56.0078 25.0726 52.7095 27.1807C49.4113 29.2887 44.9379 30.473 40.2735 30.473C35.6091 30.473 31.1356 29.2887 27.8374 27.1807C24.5391 25.0726 22.6863 22.2135 22.6863 19.2323H24.1973C24.1973 21.9574 25.891 24.5709 28.9058 26.4978C31.9207 28.4247 36.0098 29.5073 40.2735 29.5073C44.5372 29.5073 48.6262 28.4247 51.6411 26.4978C54.656 24.5709 56.3498 21.9574 56.3498 19.2323H57.8608Z" fill="#284356"/>
<path d="M22.6861 19.2323C22.6861 16.2511 24.5391 13.3919 27.8373 11.2839C31.1356 9.17587 35.6089 7.99158 40.2733 7.99158C44.9378 7.99158 49.4111 9.17587 52.7094 11.2839C56.0076 13.3919 57.8606 16.2511 57.8606 19.2323H56.3496C56.3496 16.5072 54.6558 13.8937 51.6409 11.9668C48.626 10.0398 44.537 8.95733 40.2733 8.95733C36.0096 8.95733 31.9205 10.0398 28.9057 11.9668C25.8908 13.8937 24.1971 16.5072 24.1971 19.2323H22.6861Z" fill="#284356"/>
<path d="M40.2493 22.2457C41.673 22.2457 42.8271 20.884 42.8271 19.2042C42.8271 17.5244 41.673 16.1627 40.2493 16.1627C38.8256 16.1627 37.6715 17.5244 37.6715 19.2042C37.6715 20.884 38.8256 22.2457 40.2493 22.2457Z" fill="#1C2735"/>
<mask id="mask0_646_521" style="mask-type:luminance" maskUnits="userSpaceOnUse" x="33" y="11" width="14" height="17">
<path d="M40.2493 27.0872C43.837 27.0872 46.7454 23.5856 46.7454 19.2662C46.7454 14.9467 43.837 11.4451 40.2493 11.4451C36.6616 11.4451 33.7532 14.9467 33.7532 19.2662C33.7532 23.5856 36.6616 27.0872 40.2493 27.0872Z" fill="white"/>
</mask>
<g mask="url(#mask0_646_521)">
<path d="M36.5984 19.2662C36.5984 19.2556 36.5954 18.9385 36.9908 18.4624C37.4034 17.9658 38.5027 17.0873 40.2493 17.0873V37.0873C51.2462 37.0873 56.8925 27.1433 56.8925 19.2662H36.5984ZM40.2493 17.0873C41.9959 17.0873 43.0954 17.9658 43.5078 18.4624C43.9033 18.9385 43.9003 19.2556 43.9003 19.2662H23.6062C23.6062 27.1433 29.2524 37.0873 40.2493 37.0873V17.0873ZM43.9003 19.2662C43.9003 19.2769 43.9033 19.5939 43.5078 20.07C43.0954 20.5667 41.9959 21.4452 40.2493 21.4452V1.44519C29.2524 1.44519 23.6062 11.3892 23.6062 19.2662H43.9003ZM40.2493 21.4452C38.5027 21.4452 37.4034 20.5667 36.9908 20.07C36.5954 19.5939 36.5984 19.2769 36.5984 19.2662H56.8925C56.8925 11.3892 51.2462 1.44519 40.2493 1.44519V21.4452Z" fill="#6090A8"/>
</g>
</g>
<defs>
<clipPath id="clip0_646_521">
<rect width="69" height="38" fill="white"/>
</clipPath>
</defs>
</svg>
